<svg xmlns="http://www.w3.org/2000/svg" xmlns:xlink="http://www.w3.org/1999/xlink" width="40" zoomAndPan="magnify" viewBox="0 0 30 30.000001" height="40" preserveAspectRatio="xMidYMid meet" version="1.0"><defs><g/><clipPath id="e368a11d40"><path d="M 0.484375 0 L 29.515625 0 L 29.515625 29.03125 L 0.484375 29.03125 Z M 0.484375 0 " clip-rule="nonzero"/></clipPath><clipPath id="418782021d"><path d="M 8 4 L 23 4 L 23 29.03125 L 8 29.03125 Z M 8 4 " clip-rule="nonzero"/></clipPath><clipPath id="3dad0debb8"><rect x="0" width="15" y="0" height="26"/></clipPath></defs><g clip-path="url(#e368a11d40)"><path fill="#ffffff" d="M 0.484375 0 L 29.515625 0 L 29.515625 29.03125 L 0.484375 29.03125 Z M 0.484375 0 " fill-opacity="1" fill-rule="nonzero"/><path fill="#0f1115" d="M 0.484375 0 L 29.515625 0 L 29.515625 29.03125 L 0.484375 29.03125 Z M 0.484375 0 " fill-opacity="1" fill-rule="nonzero"/></g><g clip-path="url(#418782021d)"><g transform="matrix(1, 0, 0, 1, 8, 4)"><g clip-path="url(#3dad0debb8)"><g fill="#8a6e3f" fill-opacity="1"><g transform="translate(0.897636, 20.866214)"><g><path d="M 2.640625 -16.90625 C 2.640625 -16.550781 2.65625 -16.125 2.6875 -15.625 C 2.75 -14.5 2.78125 -13.816406 2.78125 -13.578125 C 2.78125 -13.253906 2.804688 -12.722656 2.859375 -11.984375 C 2.910156 -11.253906 2.9375 -10.679688 2.9375 -10.265625 C 2.976562 -10.265625 3.023438 -10.269531 3.078125 -10.28125 C 3.222656 -10.363281 3.566406 -10.566406 4.109375 -10.890625 C 5.109375 -11.492188 6.21875 -12.25 7.4375 -13.15625 L 5.765625 -14.484375 L 4.75 -15.3125 L 3.859375 -16 Z M 0.859375 -17.859375 C 0.859375 -18.078125 0.710938 -18.359375 0.421875 -18.703125 C 0.367188 -18.773438 0.34375 -18.835938 0.34375 -18.890625 C 0.34375 -19.117188 0.789062 -19.304688 1.6875 -19.453125 L 1.984375 -19.484375 C 2.015625 -19.460938 2.039062 -19.441406 2.0625 -19.421875 C 2.125 -19.367188 2.207031 -19.289062 2.3125 -19.1875 L 3.40625 -18.234375 C 3.675781 -18.003906 4.019531 -17.734375 4.4375 -17.421875 C 4.863281 -17.109375 5.398438 -16.734375 6.046875 -16.296875 C 7.128906 -15.523438 7.90625 -14.925781 8.375 -14.5 C 8.8125 -14.101562 9.03125 -13.796875 9.03125 -13.578125 C 9.03125 -13.359375 8.878906 -13.15625 8.578125 -12.96875 C 8.265625 -12.789062 7.921875 -12.523438 7.546875 -12.171875 C 7.265625 -11.910156 6.625 -11.460938 5.625 -10.828125 C 4.625 -10.191406 3.90625 -9.671875 3.46875 -9.265625 L 5.546875 -7.921875 L 7.484375 -6.734375 C 8.742188 -6.003906 9.335938 -5.515625 9.265625 -5.265625 C 9.203125 -5.035156 8.203125 -4.273438 6.265625 -2.984375 L 4.71875 -1.953125 L 2.265625 -0.375 C 2.128906 -0.28125 1.976562 -0.234375 1.8125 -0.234375 C 1.632812 -0.234375 1.445312 -0.285156 1.25 -0.390625 C 0.988281 -0.503906 0.859375 -0.71875 0.859375 -1.03125 C 0.859375 -1.175781 0.890625 -1.359375 0.953125 -1.578125 C 0.953125 -1.660156 0.976562 -2.175781 1.03125 -3.125 C 1.050781 -3.601562 1.0625 -4.039062 1.0625 -4.4375 L 1.078125 -9.28125 C 1.078125 -9.789062 1.070312 -10.351562 1.0625 -10.96875 C 1.019531 -12.507812 1 -13.515625 1 -13.984375 C 1 -14.648438 0.972656 -15.425781 0.921875 -16.3125 C 0.878906 -17.195312 0.859375 -17.710938 0.859375 -17.859375 Z M 2.75 -1.796875 C 4.269531 -2.671875 5.894531 -3.710938 7.625 -4.921875 C 5.945312 -5.890625 4.34375 -6.910156 2.8125 -7.984375 L 2.78125 -4.890625 C 2.78125 -4.546875 2.773438 -4.03125 2.765625 -3.34375 C 2.753906 -2.664062 2.75 -2.148438 2.75 -1.796875 Z M 2.75 -1.796875 "/></g></g></g></g></g></g></svg>