<svg xmlns="http://www.w3.org/2000/svg" xmlns:xlink="http://www.w3.org/1999/xlink" width="40" zoomAndPan="magnify" viewBox="0 0 30 30.000001" height="40" preserveAspectRatio="xMidYMid meet" version="1.0"><defs><g/><clipPath id="012c1c5d0a"><path d="M 0.484375 0 L 29.515625 0 L 29.515625 29.03125 L 0.484375 29.03125 Z M 0.484375 0 " clip-rule="nonzero"/></clipPath></defs><g clip-path="url(#012c1c5d0a)"><path fill="#212121" d="M 29.515625 14.515625 C 29.515625 15.46875 29.421875 16.414062 29.238281 17.347656 C 29.050781 18.28125 28.777344 19.191406 28.410156 20.070312 C 28.046875 20.953125 27.597656 21.789062 27.070312 22.582031 C 26.539062 23.375 25.9375 24.105469 25.265625 24.78125 C 24.589844 25.453125 23.855469 26.054688 23.066406 26.585938 C 22.273438 27.117188 21.4375 27.5625 20.554688 27.925781 C 19.675781 28.292969 18.765625 28.566406 17.832031 28.753906 C 16.898438 28.9375 15.953125 29.03125 15 29.03125 C 14.046875 29.03125 13.101562 28.9375 12.167969 28.753906 C 11.234375 28.566406 10.324219 28.292969 9.445312 27.925781 C 8.5625 27.5625 7.726562 27.117188 6.933594 26.585938 C 6.144531 26.054688 5.410156 25.453125 4.734375 24.78125 C 4.0625 24.105469 3.460938 23.375 2.929688 22.582031 C 2.402344 21.789062 1.953125 20.953125 1.589844 20.070312 C 1.222656 19.191406 0.949219 18.28125 0.761719 17.347656 C 0.578125 16.414062 0.484375 15.46875 0.484375 14.515625 C 0.484375 13.5625 0.578125 12.617188 0.761719 11.683594 C 0.949219 10.75 1.222656 9.839844 1.589844 8.960938 C 1.953125 8.082031 2.402344 7.242188 2.929688 6.453125 C 3.460938 5.660156 4.0625 4.925781 4.734375 4.25 C 5.410156 3.578125 6.144531 2.976562 6.933594 2.445312 C 7.726562 1.917969 8.5625 1.46875 9.445312 1.105469 C 10.324219 0.738281 11.234375 0.464844 12.167969 0.277344 C 13.101562 0.09375 14.046875 0 15 0 C 15.953125 0 16.898438 0.09375 17.832031 0.277344 C 18.765625 0.464844 19.675781 0.738281 20.554688 1.105469 C 21.4375 1.46875 22.273438 1.917969 23.066406 2.445312 C 23.855469 2.976562 24.589844 3.578125 25.265625 4.25 C 25.9375 4.925781 26.539062 5.660156 27.070312 6.453125 C 27.597656 7.242188 28.046875 8.082031 28.410156 8.960938 C 28.777344 9.839844 29.050781 10.75 29.238281 11.683594 C 29.421875 12.617188 29.515625 13.5625 29.515625 14.515625 Z M 29.515625 14.515625 " fill-opacity="1" fill-rule="nonzero"/></g><path fill="#8a6e3f" d="M 15 27.648438 C 7.753906 27.648438 1.867188 21.761719 1.867188 14.515625 C 1.867188 7.269531 7.753906 1.382812 15 1.382812 C 22.246094 1.382812 28.132812 7.269531 28.132812 14.515625 C 28.132812 21.761719 22.246094 27.648438 15 27.648438 Z M 15 1.710938 C 7.925781 1.710938 2.191406 7.441406 2.191406 14.515625 C 2.191406 21.589844 7.949219 27.324219 15 27.324219 C 22.074219 27.324219 27.808594 21.570312 27.808594 14.515625 C 27.808594 7.441406 22.074219 1.710938 15 1.710938 Z M 15 1.710938 " fill-opacity="1" fill-rule="nonzero"/><g fill="#8a6e3f" fill-opacity="1"><g transform="translate(10.979539, 25.084845)"><g><path d="M 2.453125 -15.6875 C 2.453125 -15.351562 2.46875 -14.957031 2.5 -14.5 C 2.550781 -13.457031 2.578125 -12.828125 2.578125 -12.609375 C 2.578125 -12.296875 2.601562 -11.800781 2.65625 -11.125 C 2.707031 -10.445312 2.734375 -9.910156 2.734375 -9.515625 C 2.765625 -9.523438 2.804688 -9.535156 2.859375 -9.546875 C 2.992188 -9.617188 3.3125 -9.804688 3.8125 -10.109375 C 4.738281 -10.671875 5.765625 -11.367188 6.890625 -12.203125 L 5.359375 -13.4375 L 4.40625 -14.203125 L 3.578125 -14.84375 Z M 0.796875 -16.578125 C 0.796875 -16.773438 0.660156 -17.035156 0.390625 -17.359375 C 0.335938 -17.421875 0.3125 -17.476562 0.3125 -17.53125 C 0.3125 -17.75 0.734375 -17.925781 1.578125 -18.0625 L 1.84375 -18.078125 C 1.875 -18.054688 1.898438 -18.035156 1.921875 -18.015625 C 1.972656 -17.972656 2.046875 -17.898438 2.140625 -17.796875 L 3.171875 -16.921875 C 3.421875 -16.710938 3.738281 -16.460938 4.125 -16.171875 C 4.519531 -15.878906 5.015625 -15.523438 5.609375 -15.109375 C 6.617188 -14.398438 7.335938 -13.851562 7.765625 -13.46875 C 8.179688 -13.09375 8.390625 -12.800781 8.390625 -12.59375 C 8.390625 -12.394531 8.242188 -12.207031 7.953125 -12.03125 C 7.671875 -11.863281 7.351562 -11.617188 7 -11.296875 C 6.75 -11.054688 6.15625 -10.640625 5.21875 -10.046875 C 4.289062 -9.453125 3.625 -8.96875 3.21875 -8.59375 L 5.140625 -7.34375 L 6.953125 -6.25 C 8.109375 -5.570312 8.65625 -5.113281 8.59375 -4.875 C 8.539062 -4.664062 7.613281 -3.960938 5.8125 -2.765625 L 4.375 -1.8125 L 2.109375 -0.34375 C 1.984375 -0.257812 1.835938 -0.21875 1.671875 -0.21875 C 1.515625 -0.21875 1.34375 -0.265625 1.15625 -0.359375 C 0.914062 -0.460938 0.796875 -0.660156 0.796875 -0.953125 C 0.796875 -1.097656 0.828125 -1.265625 0.890625 -1.453125 C 0.890625 -1.535156 0.910156 -2.019531 0.953125 -2.90625 C 0.972656 -3.34375 0.984375 -3.742188 0.984375 -4.109375 L 1 -8.609375 C 1 -9.085938 0.992188 -9.613281 0.984375 -10.1875 C 0.941406 -11.613281 0.921875 -12.546875 0.921875 -12.984375 C 0.921875 -13.597656 0.898438 -14.316406 0.859375 -15.140625 C 0.816406 -15.960938 0.796875 -16.441406 0.796875 -16.578125 Z M 2.546875 -1.671875 C 3.960938 -2.484375 5.472656 -3.445312 7.078125 -4.5625 C 5.515625 -5.457031 4.023438 -6.410156 2.609375 -7.421875 L 2.578125 -4.53125 C 2.578125 -4.21875 2.570312 -3.742188 2.5625 -3.109375 C 2.550781 -2.472656 2.546875 -1.992188 2.546875 -1.671875 Z M 2.546875 -1.671875 "/></g></g></g></svg>